# xmcd
#
# Track frame offsets: 
#        150
#        28799
#        52709
#        74550
#        91455
#        113323
#        132020
#        153582
#        181250
#        195777
#
# Disc length: 2882 seconds
#
# Revision: 0
# Processed by: cddbd v1.5.2PL0 Copyright (c) Steve Scherf et al.
# Submitted via: ExactAudioCopy v0.95b3
#
DISCID=740b400a
DTITLE=Wende - Carré
DYEAR=2011
DGENRE=Pop
TTITLE0=Roses in June
TTITLE1=Slowly
TTITLE2=Rip the Ribbon
TTITLE3=De Wereld Beweegt
TTITLE4=Underneath
TTITLE5=As the Lady Walks Along
TTITLE6=New York is Passing By
TTITLE7=Soft Summer Symphony
TTITLE8=The Moon is Out
TTITLE9=Adem Uit
EXTD=
EXTT0=
EXTT1=
EXTT2=
EXTT3=
EXTT4=
EXTT5=
EXTT6=
EXTT7=
EXTT8=
EXTT9=
PLAYORDER=
